<?xml version="1.0" encoding="UTF-8" ?>
<svg version="1.1" width="2048" height="2048" xmlns="http://www.w3.org/2000/svg" shape-rendering="crispEdges">
<rect x="340" y="80" width="1640" height="92" fill="#20214A" />
<rect x="340" y="172" width="88" height="180" fill="#20214A" />
<rect x="428" y="172" width="1464" height="92" fill="#5F67D9" />
<rect x="1892" y="172" width="88" height="1824" fill="#20214A" />
<rect x="428" y="264" width="364" height="88" fill="#5F67D9" />
<rect x="792" y="264" width="276" height="88" fill="#20214A" />
<rect x="1068" y="264" width="824" height="88" fill="#5F67D9" />
<rect x="244" y="352" width="96" height="96" fill="#20214A" />
<rect x="340" y="352" width="364" height="460" fill="#5F67D9" />
<rect x="704" y="352" width="88" height="276" fill="#20214A" />
<rect x="792" y="352" width="276" height="276" fill="#5F67D9" />
<rect x="1068" y="352" width="88" height="276" fill="#20214A" />
<rect x="1156" y="352" width="736" height="96" fill="#5F67D9" />
<rect x="156" y="448" width="88" height="88" fill="#20214A" />
<rect x="244" y="448" width="96" height="636" fill="#5F67D9" />
<rect x="1156" y="448" width="96" height="88" fill="#20214A" />
<rect x="1252" y="448" width="640" height="88" fill="#5F67D9" />
<rect x="64" y="536" width="92" height="1460" fill="#20214A" />
<rect x="156" y="536" width="88" height="1276" fill="#5F67D9" />
<rect x="1156" y="536" width="96" height="184" fill="#5F67D9" />
<rect x="1252" y="536" width="88" height="184" fill="#20214A" />
<rect x="1340" y="536" width="552" height="276" fill="#5F67D9" />
<rect x="704" y="628" width="88" height="184" fill="#5F67D9" />
<rect x="792" y="628" width="276" height="92" fill="#20214A" />
<rect x="1068" y="628" width="88" height="184" fill="#5F67D9" />
<rect x="792" y="720" width="276" height="92" fill="#5F67D9" />
<rect x="1156" y="720" width="96" height="548" fill="#20214A" />
<rect x="1252" y="720" width="88" height="92" fill="#5F67D9" />
<rect x="340" y="812" width="180" height="88" fill="#5F67D9" />
<rect x="520" y="812" width="636" height="184" fill="#20214A" />
<rect x="1252" y="812" width="272" height="184" fill="#20214A" />
<rect x="1524" y="812" width="368" height="88" fill="#5F67D9" />
<rect x="340" y="900" width="88" height="96" fill="#5F67D9" />
<rect x="428" y="900" width="92" height="644" fill="#20214A" />
<rect x="1524" y="900" width="92" height="96" fill="#20214A" />
<rect x="1616" y="900" width="276" height="96" fill="#5F67D9" />
<rect x="340" y="996" width="88" height="548" fill="#20214A" />
<rect x="520" y="996" width="88" height="88" fill="#20214A" />
<rect x="608" y="996" width="276" height="88" fill="#E6BD6B" />
<rect x="884" y="996" width="272" height="88" fill="#20214A" />
<rect x="1252" y="996" width="180" height="88" fill="#20214A" />
<rect x="1432" y="996" width="184" height="88" fill="#E6BD6B" />
<rect x="1616" y="996" width="88" height="88" fill="#20214A" />
<rect x="1704" y="996" width="188" height="88" fill="#5F67D9" />
<rect x="244" y="1084" width="96" height="364" fill="#20214A" />
<rect x="520" y="1084" width="88" height="276" fill="#E6BD6B" />
<rect x="608" y="1084" width="276" height="276" fill="#20214A" />
<rect x="884" y="1084" width="92" height="276" fill="#E6BD6B" />
<rect x="976" y="1084" width="180" height="184" fill="#20214A" />
<rect x="1252" y="1084" width="88" height="184" fill="#20214A" />
<rect x="1340" y="1084" width="92" height="276" fill="#E6BD6B" />
<rect x="1432" y="1084" width="184" height="276" fill="#20214A" />
<rect x="1616" y="1084" width="88" height="276" fill="#E6BD6B" />
<rect x="1704" y="1084" width="96" height="364" fill="#20214A" />
<rect x="1800" y="1084" width="92" height="728" fill="#5F67D9" />
<rect x="976" y="1268" width="364" height="92" fill="#E6BD6B" />
<rect x="520" y="1360" width="88" height="184" fill="#20214A" />
<rect x="608" y="1360" width="276" height="88" fill="#E6BD6B" />
<rect x="884" y="1360" width="548" height="184" fill="#20214A" />
<rect x="1432" y="1360" width="184" height="88" fill="#E6BD6B" />
<rect x="1616" y="1360" width="88" height="184" fill="#20214A" />
<rect x="244" y="1448" width="96" height="364" fill="#5F67D9" />
<rect x="608" y="1448" width="276" height="96" fill="#20214A" />
<rect x="1432" y="1448" width="184" height="96" fill="#20214A" />
<rect x="1704" y="1448" width="96" height="364" fill="#5F67D9" />
<rect x="340" y="1544" width="1364" height="88" fill="#5F67D9" />
<rect x="340" y="1632" width="268" height="180" fill="#5F67D9" />
<rect x="608" y="1632" width="824" height="92" fill="#20214A" />
<rect x="1432" y="1632" width="272" height="180" fill="#5F67D9" />
<rect x="608" y="1724" width="824" height="88" fill="#5F67D9" />
<rect x="156" y="1812" width="1736" height="184" fill="#20214A" />
</svg>